<svg id="af544b84-d3ed-4bb0-9b94-5fadd39d5a2b" data-name="Layer 4" xmlns="http://www.w3.org/2000/svg" xmlns:xlink="http://www.w3.org/1999/xlink" viewBox="0 0 782.7 209.87"><defs><linearGradient id="aa403480-753f-4854-8736-1037e59de945" x1="692.73" y1="188.49" x2="603.12" y2="109.6" gradientUnits="userSpaceOnUse"><stop offset="0" stop-color="#fff" stop-opacity="0"/><stop offset="1" stop-color="#fff"/></linearGradient><linearGradient id="fd3e557a-6353-4052-9aaa-6e7ea5dace4d" x1="680.78" y1="202.08" x2="591.16" y2="123.18" xlink:href="#aa403480-753f-4854-8736-1037e59de945"/><linearGradient id="a4e7eff5-b3ad-4069-bb49-88abd9ea57b2" x1="691.86" y1="189.49" x2="602.24" y2="110.6" xlink:href="#aa403480-753f-4854-8736-1037e59de945"/><linearGradient id="b429a8ba-8ce0-4cac-a27d-b556aa3a469f" x1="89.31" y1="26.07" x2="168.97" y2="104.19" xlink:href="#aa403480-753f-4854-8736-1037e59de945"/><linearGradient id="f1333bb1-c987-4f59-88cd-aedd64bffeab" x1="114.39" y1="0.5" x2="194.05" y2="78.63" xlink:href="#aa403480-753f-4854-8736-1037e59de945"/><linearGradient id="b6fe4adb-5f4b-4fcc-9a76-edc21e8fe4d5" x1="102.33" y1="12.79" x2="181.99" y2="90.92" xlink:href="#aa403480-753f-4854-8736-1037e59de945"/></defs><path d="M779.38,99.47A84.91,84.91,0,0,1,743.84,87.2c-10.09-6.38-15.05-17-20.3-28.35-5.86-12.61-11.93-25.66-25.78-34.54-8.81-5.65-19.61-8.51-33.18-8.51-19.13,0-43.77,5.68-76.14,17.22a26.23,26.23,0,0,0-.87-2.79.58.58,0,0,1-.05-.14,27.86,27.86,0,0,0-1.21-2.7c58-20.81,91.26-23.15,114.69-8.13,15.32,9.82,22,24.3,28,37.07,5.08,10.92,9.46,20.36,18.06,25.8,10,6.31,21.5,10.16,34.5,11.57.38-1,.76-1.94,1.15-2.9-12.89-1.28-24.28-5-34.05-11.2-7.85-5-12.06-14-16.95-24.54-6.1-13.14-13-28-29.08-38.32-30.1-19.31-74.38-7.66-117.88,8-3-4.3-6.83-6.54-9.91-5.36l-26.61,8.88L542,11.92a18.55,18.55,0,0,0-23.92-10.7L480.83,15.43l-2.31-6a5.14,5.14,0,0,0-2.75-2.91,5.19,5.19,0,0,0-4-.12l-3.52,1.35a5.25,5.25,0,0,0-3,6.77l.5,1.32L428.59,30a5.36,5.36,0,0,0-3.08,6.9l6.13,16.06L399.32,65.26a5.35,5.35,0,0,0-3.09,6.89,5.36,5.36,0,0,0,5,3.44,5.46,5.46,0,0,0,1.9-.35L435.45,62.9l6.42,16.81h0l2,5.23,8.42,22L420,119.31a5.35,5.35,0,0,0-3.08,6.9,5.37,5.37,0,0,0,5,3.43,5.2,5.2,0,0,0,1.9-.35L456.09,117,462.22,133a5.27,5.27,0,0,0,2.8,3,5.38,5.38,0,0,0,2.18.47,5.47,5.47,0,0,0,1.91-.35l37.11-14.17.5,1.32a5.24,5.24,0,0,0,2.76,2.92,5.19,5.19,0,0,0,4,.11l3.53-1.35a5.25,5.25,0,0,0,3-6.77l-2.31-6L555,97.92A18.54,18.54,0,0,0,565.67,74l-6.25-16.37,25.69-11.08c3.11-1.19,4.5-5.39,3.89-10.53,54.63-19.52,86.72-22.26,107.14-9.17,13.12,8.41,19,21.05,24.68,33.28,5.44,11.7,10.58,22.76,21.41,29.62a87.67,87.67,0,0,0,36.11,12.64C778.68,101.41,779,100.44,779.38,99.47Zm-377.33-27a2.25,2.25,0,0,1-1.78-.05,2.36,2.36,0,0,1-1.24-1.3,2.36,2.36,0,0,1,1.36-3l32.32-12.34,1.67,4.37Zm45.21,13-1.52-4L458,76.77a2.6,2.6,0,0,1,1.85,4.85l-12.23,4.67Zm-24.57,41.08a2.34,2.34,0,0,1-1.67-4.37l32.33-12.34,1.66,4.37Zm45.35,6.8a2.32,2.32,0,0,1-1.79,0,2.28,2.28,0,0,1-1.23-1.3L448.66,89.09l12.23-4.67a5.59,5.59,0,1,0-4-10.45l-12.23,4.67-6.42-16.81h0l-3.81-10h0l-6.13-16.06a2.34,2.34,0,0,1,1.35-3L466.77,18.6l38.38,100.53ZM517.2,121a2.26,2.26,0,0,1-1.25,1.18l-3.53,1.35a2.25,2.25,0,0,1-2.9-1.3l-.5-1.32h0L468.5,14.73h0l-.5-1.32a2.25,2.25,0,0,1,1.3-2.9l3.52-1.34a2.23,2.23,0,0,1,2.9,1.29l2.31,6h0l36.91,96.69h0l2.31,6A2.28,2.28,0,0,1,517.2,121Zm45.66-45.89a15.52,15.52,0,0,1-9,20l-37.22,14.21L484.1,24l-2.2-5.77L519.12,4a15.56,15.56,0,0,1,20,9l6.2,16.25h0l4.38,11.48ZM584,43.76,558.35,54.82,549.29,31.1l26.55-8.86c1.07-.41,2.59.18,4.18,1.61A16.16,16.16,0,0,1,582.63,27l0,.08.21.34q.51.84,1,1.74a.91.91,0,0,0,.07.14c.29.6.56,1.21.8,1.84h0v0c.24.64.45,1.28.64,1.93l0,.13q.27,1,.45,1.95C586.63,39.58,585.77,43.08,584,43.76Z" fill="url(#aa403480-753f-4854-8736-1037e59de945)"/><path d="M513.92,35.35a4.22,4.22,0,0,0-5.45-2.44l-2.57,1a4.24,4.24,0,0,0-2.44,5.45l15.23,39.88a4.22,4.22,0,0,0,5.45,2.43l2.56-1a4.24,4.24,0,0,0,2.44-5.46Zm12.39,41.88a1.16,1.16,0,0,1-.68.64l-2.56,1a1.23,1.23,0,0,1-1.58-.7L506.26,38.27a1.27,1.27,0,0,1,0-.94,1.22,1.22,0,0,1,.68-.64l2.57-1a1.22,1.22,0,0,1,.43-.08,1.25,1.25,0,0,1,.5.11,1.21,1.21,0,0,1,.65.68l15.22,39.87A1.18,1.18,0,0,1,526.31,77.23Z" fill="url(#fd3e557a-6353-4052-9aaa-6e7ea5dace4d)"/><path d="M531.62,28.59a4.22,4.22,0,0,0-5.45-2.44l-2.57,1a4.24,4.24,0,0,0-2.44,5.45l15.23,39.88a4.28,4.28,0,0,0,4,2.72,4.37,4.37,0,0,0,1.5-.28l2.56-1a4.22,4.22,0,0,0,2.44-5.45ZM544,70.47a1.24,1.24,0,0,1-.68.65l-2.56,1a1.27,1.27,0,0,1-.94,0,1.22,1.22,0,0,1-.64-.68L524,31.51a1.25,1.25,0,0,1,0-.93,1.27,1.27,0,0,1,.68-.65l2.57-1a1.24,1.24,0,0,1,1.58.71L544,69.54A1.25,1.25,0,0,1,544,70.47Z" fill="url(#a4e7eff5-b3ad-4069-bb49-88abd9ea57b2)"/><path d="M360.24,173l-16.36-42.85h0l-2-5.23L323.53,76.85a5.35,5.35,0,0,0-6.89-3.09L279.53,87.93l-.5-1.32a5.24,5.24,0,0,0-6.77-3l-3.53,1.35a5.23,5.23,0,0,0-3,6.77l2.3,6-37.22,14.21a18.56,18.56,0,0,0-10.7,23.93l6.25,16.36-25.7,11.09c-2.19.84-3.6,3.14-3.95,6.48a17.84,17.84,0,0,0,.07,4C142.12,193.37,110,196.11,89.61,183c-13.12-8.41-19-21.05-24.68-33.28C59.48,138,54.34,127,43.51,120.12,31,112.23,16.48,107.78,0,106.77c.16,1,.29,2,.4,3,15.74,1,29.63,5.32,41.51,12.85C52,129,57,139.71,62.21,151c5.86,12.62,11.92,25.66,25.78,34.55,21.23,13.61,54,11,109.32-8.71v0c.11.44.24.88.38,1.31a1.21,1.21,0,0,0,.05.18c.15.47.31.94.49,1.41s.37.92.57,1.37c0,0,0,0,0,.05.2.44.41.87.62,1.29-58,20.81-91.26,23.15-114.69,8.13-15.32-9.82-22-24.3-28-37.07-5.08-10.93-9.46-20.36-18.06-25.8-10.81-6.85-23.49-10.8-37.89-11.87,0,1,0,2,0,3,13.81,1.06,26,4.84,36.29,11.38,7.86,5,12.07,14,16.95,24.54,6.11,13.14,13,28,29.09,38.32,11.2,7.18,24.35,10.08,38.71,10.08,24.22,0,51.85-8.26,79.17-18.11a18.3,18.3,0,0,0,2.71,3.14,8.44,8.44,0,0,0,5.46,2.53,4.63,4.63,0,0,0,1.74-.32l26.61-8.87,6.24,16.36a18.5,18.5,0,0,0,23.93,10.71l37.22-14.21,2.3,6a5.27,5.27,0,0,0,4.9,3.37,5.08,5.08,0,0,0,1.87-.35l3.53-1.34a5.24,5.24,0,0,0,3-6.77l-.5-1.32,37.1-14.17A5.35,5.35,0,0,0,360.24,173Zm-21.16-47,.93,2.43-12.23,4.67a2.6,2.6,0,1,1-1.86-4.85l12.24-4.67ZM209.91,187.62c-1.07.41-2.59-.18-4.18-1.61a16.16,16.16,0,0,1-2.61-3.16l0-.07-.21-.34c-.34-.57-.67-1.15-1-1.75l-.07-.14c-.29-.61-.57-1.22-.81-1.86s-.45-1.28-.64-1.94a1,1,0,0,0,0-.14c-.18-.65-.33-1.31-.45-2,0-.1,0-.2-.05-.3l0-.15a15.85,15.85,0,0,1-.16-4.08c.23-2.12,1-3.58,2.1-4L227.4,155l9,23.72Zm56.72,18.22a15.53,15.53,0,0,1-20-9l-23.7-62.06a15.56,15.56,0,0,1,9-20.06l37.22-14.2,34.78,91.09Zm51.07-7.67a2.29,2.29,0,0,1-1.25,1.18l-3.53,1.34a2.21,2.21,0,0,1-1.71-.05A2.18,2.18,0,0,1,310,199.4l-2.31-6h0L268.5,90.63a2.28,2.28,0,0,1,.05-1.72,2.23,2.23,0,0,1,1.25-1.18l3.53-1.35a2.24,2.24,0,0,1,2.89,1.3l.51,1.32h0l41,107.45A2.28,2.28,0,0,1,317.7,198.17Zm38.38-21.08L319,191.26,280.6,90.73l37.11-14.16a2.32,2.32,0,0,1,3,1.35l16.36,42.84-12.24,4.67a5.6,5.6,0,1,0,4,10.46l12.23-4.67,16.36,42.85A2.34,2.34,0,0,1,356.08,177.09Z" fill="url(#b429a8ba-8ce0-4cac-a27d-b556aa3a469f)"/><path d="M267.06,130.64a4.24,4.24,0,0,0-5.45-2.44l-2.57,1a4.24,4.24,0,0,0-2.44,5.45l15.23,39.88a4.23,4.23,0,0,0,3.95,2.72,4.15,4.15,0,0,0,1.5-.28l2.57-1a4.24,4.24,0,0,0,2.44-5.45Zm12.39,41.89a1.24,1.24,0,0,1-.67.64l-2.57,1a1.23,1.23,0,0,1-1.58-.71l-15.22-39.88a1.23,1.23,0,0,1,.7-1.57l2.57-1a1.06,1.06,0,0,1,.43-.08,1.24,1.24,0,0,1,.5.1,1.27,1.27,0,0,1,.65.68l15.22,39.88A1.18,1.18,0,0,1,279.45,172.53Z" fill="url(#f1333bb1-c987-4f59-88cd-aedd64bffeab)"/><path d="M249.36,137.4a4.22,4.22,0,0,0-5.45-2.44l-2.57,1a4.24,4.24,0,0,0-2.44,5.45l15.23,39.88a4.28,4.28,0,0,0,3.95,2.72,4.33,4.33,0,0,0,1.5-.28l2.57-1a4.24,4.24,0,0,0,2.44-5.45Zm12.39,41.88a1.22,1.22,0,0,1-.67.65l-2.57,1a1.25,1.25,0,0,1-.93,0,1.27,1.27,0,0,1-.65-.68l-15.22-39.88a1.16,1.16,0,0,1,0-.93,1.22,1.22,0,0,1,.67-.65l2.57-1a1.24,1.24,0,0,1,1.58.71l15.22,39.88A1.16,1.16,0,0,1,261.75,179.28Z" fill="url(#b6fe4adb-5f4b-4fcc-9a76-edc21e8fe4d5)"/></svg>