<svg id="b5af51bb-09e1-4c26-b5f0-d29a86594ad2" data-name="Capa 1" xmlns="http://www.w3.org/2000/svg" viewBox="0 0 256 256"><path d="M128,0A128,128,0,1,0,256,128,128,128,0,0,0,128,0Zm40.78,222.82H128.94a68.92,68.92,0,0,0,20.78-26.5h19.06a27.53,27.53,0,1,0,0-55H155.53v-26.5h13.25a27.53,27.53,0,1,0,0-55H141.26V168.78a54,54,0,0,1-108.07,0V155.54h26.5v13.24a27.53,27.53,0,0,0,55.05,0V59.7H87.22a27.55,27.55,0,0,0-27.5,27.52H33.22a54.08,54.08,0,0,1,54-54h81.56A54,54,0,0,1,204.2,128a54,54,0,0,1-35.42,94.82Z" fill="#fff" opacity="0" style="isolation:isolate"/><g opacity="1" style="isolation:isolate"><path d="M128,256A128,128,0,1,1,256,128,128.14,128.14,0,0,1,128,256ZM128,2A126,126,0,1,0,254,128,126.17,126.17,0,0,0,128,2Z" fill="#fff" style="isolation:isolate"/><path d="M168.52,223.07H136.88a4,4,0,0,1-2.76-6.82,67,67,0,0,0,13.74-19.16,4,4,0,0,1,3.59-2.3H167.9c14.43,0,26.49-11.47,26.87-25.58a26.32,26.32,0,0,0-26.31-27.06H158.29a4,4,0,0,1-4-4V117.84a4,4,0,0,1,4-4h9.61c14.43,0,26.49-11.47,26.87-25.57a26.3,26.3,0,0,0-26.31-27.06H144.13a2,2,0,0,0-2,2V168.46a54.68,54.68,0,0,1-54.6,54.61h0a54.68,54.68,0,0,1-54.6-54.61V158.3a4,4,0,0,1,4-4H57.24a4,4,0,0,1,4,4v10.16a26.34,26.34,0,0,0,26.32,26.31h0a26.35,26.35,0,0,0,26.31-26.31V63.2a2,2,0,0,0-2-2H87.54A26.25,26.25,0,0,0,61.38,84.89a4,4,0,0,1-4,3.64H37a4,4,0,0,1-2.9-1.25,3.85,3.85,0,0,1-1.07-2.93A54.71,54.71,0,0,1,87.53,32.93h81A54.57,54.57,0,0,1,205.1,128a54.57,54.57,0,0,1-36.58,95.07Zm-17.07-26.29a2,2,0,0,0-1.8,1.16,69.05,69.05,0,0,1-14.14,19.73,2,2,0,0,0-.47,2.19,1.93,1.93,0,0,0,1.84,1.23h31.64A52.59,52.59,0,0,0,203,128.75l-.87-.75.87-.75a52.59,52.59,0,0,0-34.44-92.34h-81A52.74,52.74,0,0,0,35,84.46a1.94,1.94,0,0,0,.53,1.45,2,2,0,0,0,1.46.63H57.42a2,2,0,0,0,2-1.85A28.25,28.25,0,0,1,87.53,59.23h24.33a4,4,0,0,1,4,4V168.46a28.35,28.35,0,0,1-28.29,28.3h0a28.34,28.34,0,0,1-28.31-28.3V158.3a2,2,0,0,0-2-2H36.9a2,2,0,0,0-2,2v10.16a52.69,52.69,0,0,0,52.62,52.62h0a52.68,52.68,0,0,0,52.62-52.62V63.22a4,4,0,0,1,4-4h24.33a28.32,28.32,0,0,1,28.3,29.1c-.42,15.17-13.37,27.51-28.86,27.51h-9.61a2,2,0,0,0-2,2v20.34a2,2,0,0,0,2,2h10.17a28.32,28.32,0,0,1,28.3,29.1c-.42,15.17-13.37,27.51-28.86,27.51Z" fill="#fff" style="isolation:isolate"/></g></svg>
