<svg id="Capa_1" data-name="Capa 1" xmlns="http://www.w3.org/2000/svg" viewBox="0 0 200 28"><defs><style>.cls-1{opacity:0.9;}.cls-2{fill:#fff;}</style></defs><title>julio_bergman_text</title><g class="cls-1"><path class="cls-2" d="M8.44.25h2v19.5a8.67,8.67,0,0,1-.47,3,5.85,5.85,0,0,1-1.3,2.09A5.16,5.16,0,0,1,6.7,26.06a7.16,7.16,0,0,1-2.38.39A5.7,5.7,0,0,1,2,26a8.45,8.45,0,0,1-2-1.24l.41-.42A1.38,1.38,0,0,1,1,23.93a2.38,2.38,0,0,1,.63-.07,1.56,1.56,0,0,1,.57.1l.57.22a5,5,0,0,0,.68.21,3.39,3.39,0,0,0,.9.1,5.67,5.67,0,0,0,1.54-.22,3.37,3.37,0,0,0,1.31-.75,3.88,3.88,0,0,0,.92-1.4,6.09,6.09,0,0,0,.35-2.21Z"/><path class="cls-2" d="M27.49,22.73a2.61,2.61,0,0,1-.14-.37,2.32,2.32,0,0,1-.07-.7V20.55A6.43,6.43,0,0,1,26,21.73a7.13,7.13,0,0,1-1.45.75,7.41,7.41,0,0,1-1.52.4,9.7,9.7,0,0,1-1.51.12,5.64,5.64,0,0,1-2.44-.51A5.16,5.16,0,0,1,17.23,21a7.17,7.17,0,0,1-1.17-2.29,10.45,10.45,0,0,1-.41-3V6.26h2v9.46a6.61,6.61,0,0,0,1,3.9,3.49,3.49,0,0,0,3,1.37,7.4,7.4,0,0,0,2.15-.3,6,6,0,0,0,1.75-.82,4.2,4.2,0,0,0,1.18-1.2,2.85,2.85,0,0,0,.49-1.43v-11h2V22.73Z"/><path class="cls-2" d="M36.11.25V22.73h-2V.25Z"/><path class="cls-2" d="M40.8,1.62A1.68,1.68,0,0,1,40.92,1a1.7,1.7,0,0,1,.35-.52,1.51,1.51,0,0,1,.52-.34A1.56,1.56,0,0,1,42.43,0a1.51,1.51,0,0,1,.63.13,1.51,1.51,0,0,1,.52.34,1.54,1.54,0,0,1,.35.52,1.51,1.51,0,0,1,.13.63,1.47,1.47,0,0,1-.13.62,1.54,1.54,0,0,1-.35.52,1.7,1.7,0,0,1-.52.35,1.68,1.68,0,0,1-.63.12,1.73,1.73,0,0,1-.64-.12,1.7,1.7,0,0,1-.52-.35,1.7,1.7,0,0,1-.35-.52A1.63,1.63,0,0,1,40.8,1.62Zm2.62,4.64V22.73h-2V6.26Z"/><path class="cls-2" d="M47.22,14.49a8.09,8.09,0,0,1,.31-2.25,8.94,8.94,0,0,1,.87-2,8.56,8.56,0,0,1,1.34-1.72,9,9,0,0,1,1.74-1.32,8.8,8.8,0,0,1,2-.86,8.7,8.7,0,0,1,5.59.36,9,9,0,0,1,2.73,1.82,8.71,8.71,0,0,1,1.83,2.7,8.49,8.49,0,0,1,0,6.61,8.55,8.55,0,0,1-1.83,2.69,8.65,8.65,0,0,1-2.73,1.82,8.29,8.29,0,0,1-3.33.67,8.11,8.11,0,0,1-2.26-.31,8.37,8.37,0,0,1-2-.85,8.63,8.63,0,0,1-1.74-1.33,8.5,8.5,0,0,1-1.34-1.71,8.94,8.94,0,0,1-.87-2A8.11,8.11,0,0,1,47.22,14.49Zm2,0a6.31,6.31,0,0,0,1.9,4.6,6.3,6.3,0,0,0,2.08,1.38,6.6,6.6,0,0,0,7.19-1.38A6.58,6.58,0,0,0,61.81,17a6.61,6.61,0,0,0,0-5.09,6.47,6.47,0,0,0-1.39-2,6.36,6.36,0,0,0-2.07-1.38,6.8,6.8,0,0,0-5.12,0A6.3,6.3,0,0,0,51.15,9.9a6.31,6.31,0,0,0-1.9,4.59Z"/><path class="cls-2" d="M80.64,22.73H78V.25h8.6A6.25,6.25,0,0,1,89,.72,6.43,6.43,0,0,1,91,2a6.21,6.21,0,0,1,1.36,1.91,5.47,5.47,0,0,1,.51,2.34,6,6,0,0,1-.16,1.32,6.28,6.28,0,0,1-.44,1.24,5.17,5.17,0,0,1-.65,1.07,3.5,3.5,0,0,1-.81.78l-.3.18a.52.52,0,0,1-.18.08s-.07,0-.09,0h0a1.92,1.92,0,0,1,.67.14,3.36,3.36,0,0,1,.6.32,5.08,5.08,0,0,1,1.14,1.07,5.46,5.46,0,0,1,.76,1.29,6.29,6.29,0,0,1,.4,1.39,8.22,8.22,0,0,1,.12,1.38,6.05,6.05,0,0,1-.46,2.33,6.34,6.34,0,0,1-1.29,2,6.44,6.44,0,0,1-2,1.38,6.23,6.23,0,0,1-2.54.51ZM80,2.21v8.13h6.63A4.3,4.3,0,0,0,88.22,10a4.74,4.74,0,0,0,1.35-.87,4.18,4.18,0,0,0,.93-1.3,3.58,3.58,0,0,0,.35-1.58,3.55,3.55,0,0,0-.35-1.58,4.25,4.25,0,0,0-.93-1.29,4.74,4.74,0,0,0-1.35-.87,4.3,4.3,0,0,0-1.63-.32Zm7.62,18.54a4.2,4.2,0,0,0,1.66-.33,4.55,4.55,0,0,0,1.35-.92,4.77,4.77,0,0,0,.92-1.34,4.3,4.3,0,0,0,.35-1.64,5,5,0,0,0-.26-1.79,3.51,3.51,0,0,0-.84-1.33,3.72,3.72,0,0,0-1.36-.82,5.42,5.42,0,0,0-1.81-.28H80v8.45Z"/><path class="cls-2" d="M105.3,6a8.27,8.27,0,0,1,2.82.48,8.29,8.29,0,0,1,4.26,3.34,8.91,8.91,0,0,1,1.15,2.55,2.43,2.43,0,0,1,.08.55,1.94,1.94,0,0,1-.15.76,2.16,2.16,0,0,1-.41.62,1.67,1.67,0,0,1-.6.44,1.85,1.85,0,0,1-.74.15H98.78a6.12,6.12,0,0,0,.6,2.42A6.5,6.5,0,0,0,105.3,21a4.88,4.88,0,0,0,.89-.09,7,7,0,0,0,1-.26c.32-.11.64-.24,1-.38a7.73,7.73,0,0,0,.86-.48,1.69,1.69,0,0,1,.5-.2,2.46,2.46,0,0,1,.53-.06,2,2,0,0,1,.45.05,1.53,1.53,0,0,1,.37.16,2.62,2.62,0,0,1,.34.24,4.2,4.2,0,0,0,.38.3,10.49,10.49,0,0,1-1.3,1.08,11.25,11.25,0,0,1-1.52.86,10,10,0,0,1-1.67.58,7.41,7.41,0,0,1-1.75.21,8.2,8.2,0,0,1-2.28-.31,8.37,8.37,0,0,1-2-.85,8.57,8.57,0,0,1-1.73-1.33,8.2,8.2,0,0,1-1.35-1.71,8.94,8.94,0,0,1-.87-2,8.5,8.5,0,0,1-.31-2.26,8.16,8.16,0,0,1,.68-3.3,8.77,8.77,0,0,1,1.85-2.7A9,9,0,0,1,102,6.67,8.44,8.44,0,0,1,105.3,6Zm0,2a6.66,6.66,0,0,0-2.38.42,6.51,6.51,0,0,0-2,1.17,6.25,6.25,0,0,0-1.42,1.76,6.05,6.05,0,0,0-.72,2.21,1.9,1.9,0,0,1,.27-.45.68.68,0,0,1,.57-.25h11.9a6.2,6.2,0,0,0-.9-2.06,6.25,6.25,0,0,0-3.29-2.48A6.57,6.57,0,0,0,105.32,8Z"/><path class="cls-2" d="M118,6.26a2.67,2.67,0,0,1,.14.34,1.31,1.31,0,0,1,.06.41V8.86a3.67,3.67,0,0,1,.92-1.13,6.32,6.32,0,0,1,1.41-.91,7.86,7.86,0,0,1,1.71-.6A8.16,8.16,0,0,1,124.08,6a6.69,6.69,0,0,1,1.86.26l-.16.87a1.13,1.13,0,0,1-.21.53.83.83,0,0,1-.34.28,1.49,1.49,0,0,1-.44.1h-.74a6.38,6.38,0,0,0-2.19.38,6.93,6.93,0,0,0-1.83,1,5.43,5.43,0,0,0-1.29,1.34,3.1,3.1,0,0,0-.53,1.49V22.73h-2V6.26Z"/><path class="cls-2" d="M141.24,7.75a1.43,1.43,0,0,1-.87.71,6.66,6.66,0,0,1-2.09.25,4.2,4.2,0,0,1,.43.76,7.84,7.84,0,0,1,.31.89,5.78,5.78,0,0,1,.19.88,4.43,4.43,0,0,1,.07.74,5.68,5.68,0,0,1-.48,2.33,5.84,5.84,0,0,1-1.3,1.9,6,6,0,0,1-1.91,1.28,5.93,5.93,0,0,1-2.34.47,6,6,0,0,1-2.71-.63l-.11.07a10.31,10.31,0,0,0-1.11.7,1,1,0,0,0-.47.83.58.58,0,0,0,.08.33,1.71,1.71,0,0,0,.67.47,5,5,0,0,0,1,.28,10.44,10.44,0,0,0,1.19.15c.42,0,.85,0,1.27,0,.73,0,1.46,0,2.21.1a8.92,8.92,0,0,1,2.08.41A3.65,3.65,0,0,1,139.2,22a3.35,3.35,0,0,1,.63,2.05,3.62,3.62,0,0,1-.38,1.66,3.39,3.39,0,0,1-1.11,1.25,5.41,5.41,0,0,1-1.78.8,9.81,9.81,0,0,1-2.41.27,14.42,14.42,0,0,1-2.1-.15,18.32,18.32,0,0,1-2-.4c-.65-.17-1.28-.35-1.89-.56s-1.19-.41-1.74-.62l.19-.51a1.39,1.39,0,0,1,.57-.71,1.65,1.65,0,0,1,1-.31,2.82,2.82,0,0,1,.71.09,5.85,5.85,0,0,1,.67.22l.6.24c.28.1.63.2,1,.3s.86.19,1.37.27a10.62,10.62,0,0,0,1.64.12c.31,0,.68,0,1.09-.05a4.57,4.57,0,0,0,1.19-.24,2.47,2.47,0,0,0,1-.59,1.46,1.46,0,0,0,.4-1.07V24a1.89,1.89,0,0,0,0-.29,1,1,0,0,0-.13-.37,1.15,1.15,0,0,0-.31-.37,1.71,1.71,0,0,0-.59-.3,8.7,8.7,0,0,0-2-.37c-.67,0-1.32-.06-1.94-.06a12.56,12.56,0,0,1-2-.16,7.32,7.32,0,0,1-1.84-.54,4.21,4.21,0,0,1-1.38-.94,2.28,2.28,0,0,1-.62-1.4V19a1.39,1.39,0,0,1,.36-.91,4,4,0,0,1,.72-.69,10.31,10.31,0,0,1,1.32-.84,5.09,5.09,0,0,1-1.22-1.35,6.54,6.54,0,0,1-.65-1.38,4.8,4.8,0,0,1-.26-1.14,5.86,5.86,0,0,1,0-.67V12a5.83,5.83,0,0,1,.47-2.32A6.39,6.39,0,0,1,129,7.76a6,6,0,0,1,1.92-1.28A5.77,5.77,0,0,1,133.25,6a5.6,5.6,0,0,1,2,.37,7.49,7.49,0,0,1,1.93,1.06,5.28,5.28,0,0,1,1-.5,3.71,3.71,0,0,1,1.33-.23,4.58,4.58,0,0,1,.91.11,9.91,9.91,0,0,1,1,.25Zm-12,4.23a4.12,4.12,0,0,0,.31,1.58,3.78,3.78,0,0,0,2.11,2.09,4.36,4.36,0,0,0,3.18,0,4,4,0,0,0,1.26-.83,3.67,3.67,0,0,0,.84-1.26,3.94,3.94,0,0,0,.31-1.58,3.89,3.89,0,0,0-.31-1.57,3.67,3.67,0,0,0-.84-1.26,4,4,0,0,0-1.26-.83,4.36,4.36,0,0,0-3.18,0,3.78,3.78,0,0,0-2.11,2.09A4.07,4.07,0,0,0,129.24,12Z"/><path class="cls-2" d="M160.31,6a5.9,5.9,0,0,1,2.75.57,4.55,4.55,0,0,1,1.71,1.57,6.49,6.49,0,0,1,.89,2.32,15.19,15.19,0,0,1,.25,2.85v9.43h-2V13.32a11,11,0,0,0-.16-1.89,5,5,0,0,0-.57-1.7A3.37,3.37,0,0,0,162,8.5,3.26,3.26,0,0,0,160.21,8a5.86,5.86,0,0,0-1.79.26A4.7,4.7,0,0,0,157,9a3.44,3.44,0,0,0-.91,1,2.69,2.69,0,0,0-.38,1.19V22.73h-2V13.07c0-.18,0-.43,0-.75a7.46,7.46,0,0,0-.17-1,7.26,7.26,0,0,0-.38-1.14,3.77,3.77,0,0,0-.62-1,3.1,3.1,0,0,0-.95-.77,2.79,2.79,0,0,0-1.34-.3,6.05,6.05,0,0,0-2.19.35,4.62,4.62,0,0,0-1.42.86,3,3,0,0,0-.78,1,2.47,2.47,0,0,0-.23.9V22.73h-2V6.26h1.75a.8.8,0,0,1,.2.32,1.21,1.21,0,0,1,.07.43V8.46a2.63,2.63,0,0,1,.5-.73,4.86,4.86,0,0,1,1-.8,6,6,0,0,1,1.42-.66A6,6,0,0,1,150.29,6a4.94,4.94,0,0,1,1.79.3,4.83,4.83,0,0,1,1.34.76,4.58,4.58,0,0,1,.92,1.06,5.64,5.64,0,0,1,.53,1.19,6.6,6.6,0,0,1,1-1.56,5.19,5.19,0,0,1,1.25-1,5.28,5.28,0,0,1,1.46-.57A7.93,7.93,0,0,1,160.25,6Z"/><path class="cls-2" d="M169.9,8.66c.15-.18.31-.36.47-.53s.32-.3.5-.46a3.57,3.57,0,0,1,.55-.41,10.77,10.77,0,0,1,2-.91A8,8,0,0,1,175.9,6a6.55,6.55,0,0,1,2.27.36,5.33,5.33,0,0,1,1.68,1A5.61,5.61,0,0,1,181,8.78a9,9,0,0,1,.73,1.78,12.71,12.71,0,0,1,.38,2,19.07,19.07,0,0,1,.11,2v8.22h-1.71a2.06,2.06,0,0,1-.22-.39,1.82,1.82,0,0,1-.11-.68v-.78a8,8,0,0,1-1.48,1,9.89,9.89,0,0,1-1.51.66,9.68,9.68,0,0,1-1.49.35,9.58,9.58,0,0,1-1.36.1h-.23a6.63,6.63,0,0,1-2-.37,5.49,5.49,0,0,1-1.71-.95,4.37,4.37,0,0,1-1.17-1.46,4.19,4.19,0,0,1-.44-1.93,4.69,4.69,0,0,1,.46-2.1,4.23,4.23,0,0,1,1.39-1.6,7.07,7.07,0,0,1,2.35-1,13.75,13.75,0,0,1,3.35-.36c.38,0,.78,0,1.21.05l1.19.11,1,.12.52.08a10.36,10.36,0,0,0-.54-2.77,5,5,0,0,0-1-1.71,3.06,3.06,0,0,0-1.31-.85,5.35,5.35,0,0,0-3.17,0,6.55,6.55,0,0,0-1.41.69l-.53.32a1.37,1.37,0,0,1-.72.17,2.08,2.08,0,0,1-1.27-.47ZM174.11,21a8,8,0,0,0,1.4-.14,14,14,0,0,0,1.54-.4,12.87,12.87,0,0,0,1.59-.6A16.21,16.21,0,0,0,180.2,19V15.45l-.49-.06c-.26,0-.58-.06-1-.08l-1.19-.06-1.23,0a16.93,16.93,0,0,0-2.22.14,6,6,0,0,0-1.76.51,2.84,2.84,0,0,0-1.15.94,2.45,2.45,0,0,0-.42,1.46,2.39,2.39,0,0,0,.24,1.06,2.64,2.64,0,0,0,.69.85,3,3,0,0,0,1.05.57A4.09,4.09,0,0,0,174.11,21Z"/><path class="cls-2" d="M188.16,6.26a2.21,2.21,0,0,1,.14.37,2.32,2.32,0,0,1,.07.7V8.75a7,7,0,0,1,1.28-1.22,7.61,7.61,0,0,1,1.44-.86,8.49,8.49,0,0,1,1.52-.51A7.3,7.3,0,0,1,194.13,6a5.64,5.64,0,0,1,2.44.51A5.16,5.16,0,0,1,198.42,8a7,7,0,0,1,1.17,2.3,10.43,10.43,0,0,1,.41,3v9.46h-2V13.27a6.61,6.61,0,0,0-1-3.9,3.5,3.5,0,0,0-3-1.37,7.4,7.4,0,0,0-2.15.3,6.08,6.08,0,0,0-1.74.81,4.37,4.37,0,0,0-1.19,1.2,2.92,2.92,0,0,0-.49,1.44v11h-2V6.26Z"/></g></svg>