<svg id="ff54a337-d07d-4cd0-8230-652a19ee1329" data-name="Layer 1" xmlns="http://www.w3.org/2000/svg" viewBox="0 0 527.81 73.46"><path d="M25.48.23V49.69a22.72,22.72,0,0,1-1.25,7.93,15.29,15.29,0,0,1-3.43,5.5,13.44,13.44,0,0,1-5.11,3.21,18.86,18.86,0,0,1-6.29,1A16.92,16.92,0,0,1,0,64.81a22.45,22.45,0,0,0,5.22,3.27,14.74,14.74,0,0,0,6.18,1.28,18.86,18.86,0,0,0,6.29-1,13.44,13.44,0,0,0,5.11-3.21,15.29,15.29,0,0,0,3.43-5.5,22.72,22.72,0,0,0,1.25-7.93V2.23a2,2,0,0,0-2-2Z" fill="#fff"/><path d="M47.26,49.34a8.45,8.45,0,0,0,2,1.92q-2.57-3.61-2.56-10.21v-25h-2v23Q44.65,45.71,47.26,49.34Z" fill="#fff"/><path d="M70,51.8a16.08,16.08,0,0,1-3.38,3.1,18.08,18.08,0,0,1-3.82,2,20.14,20.14,0,0,1-4,1.06,27.23,27.23,0,0,1-4,.31,14.89,14.89,0,0,1-6.45-1.35,13.3,13.3,0,0,1-2.78-1.75,13.41,13.41,0,0,0,4.78,3.75,14.89,14.89,0,0,0,6.45,1.35,27.23,27.23,0,0,0,4-.31,20.14,20.14,0,0,0,4-1.06,18.08,18.08,0,0,0,3.82-2A14.6,14.6,0,0,0,70,55.8c0-.3,0-.65,0-1.06Z" fill="#fff"/><path d="M75.35,16.09V57.55H72a4.63,4.63,0,0,0,.14,1,4.91,4.91,0,0,0,.38,1h4.8V16.09Z" fill="#fff"/><polygon points="93.3 0.23 93.3 57.55 89.96 57.55 89.96 59.55 95.3 59.55 95.3 0.23 93.3 0.23" fill="#fff"/><path d="M247.38,39.52a16.31,16.31,0,0,0-1.06-3.67,14.56,14.56,0,0,0-2-3.39,13,13,0,0,0-2.15-2.18c0,.06.11.12.15.18a14.56,14.56,0,0,1,2,3.39,16.31,16.31,0,0,1,1.06,3.67,20.85,20.85,0,0,1,.31,3.39,16.33,16.33,0,0,1-4.61,11.61,16.71,16.71,0,0,1-5.24,3.63,16.24,16.24,0,0,1-6.72,1.36l-18.3,0h-5a2,2,0,0,0,2,2h5l18.3,0a16.24,16.24,0,0,0,6.72-1.36,16.71,16.71,0,0,0,5.24-3.63,16.33,16.33,0,0,0,4.61-11.61A20.85,20.85,0,0,0,247.38,39.52Z" fill="#fff"/><path d="M211,32h20.13a14.28,14.28,0,0,1,4.76.74,10.16,10.16,0,0,1,2.56,1.33,8.9,8.9,0,0,0-1-1.16,9.68,9.68,0,0,0-3.59-2.17,14.28,14.28,0,0,0-4.76-.74H209V50.34a2,2,0,0,0,2,2h0Z" fill="#fff"/><path d="M211,5.41h17.5a10.9,10.9,0,0,1,4.28.85,11.72,11.72,0,0,1,2.73,1.58,12.87,12.87,0,0,0-1.16-1.29,11.86,11.86,0,0,0-3.57-2.29,10.9,10.9,0,0,0-4.28-.85H209V22.85a2,2,0,0,0,2,2h0Z" fill="#fff"/><path d="M243,14.09a14.78,14.78,0,0,1-.42,3.48,17.28,17.28,0,0,1-1.14,3.29,14.86,14.86,0,0,1-1.72,2.81,9.21,9.21,0,0,1-2.15,2c-.33.22-.59.39-.79.5a1.75,1.75,0,0,1-.46.2.45.45,0,0,1-.22,0,4.65,4.65,0,0,1,1.6.36,8.43,8.43,0,0,1,1.59.82l.2.16.08-.06a9.21,9.21,0,0,0,2.15-2,14.86,14.86,0,0,0,1.72-2.81,17.28,17.28,0,0,0,1.14-3.29,14.78,14.78,0,0,0,.42-3.48,14.56,14.56,0,0,0-1.33-6.17,16.41,16.41,0,0,0-3.59-5c-.25-.23-.51-.44-.76-.66a16.91,16.91,0,0,1,2.35,3.71A14.56,14.56,0,0,1,243,14.09Z" fill="#fff"/><path d="M330.08,15.62l-.15.79a3.31,3.31,0,0,1-.54,1.4,2.24,2.24,0,0,1-.9.73,3.58,3.58,0,0,1-1.17.27c-.43,0-.87,0-1.31,0h-.63a16.84,16.84,0,0,0-5.78,1,18.64,18.64,0,0,0-4.85,2.57A13.93,13.93,0,0,0,311.37,26a8.09,8.09,0,0,0-1.4,3.91V57.55h-1.81a1.54,1.54,0,0,0-1.54,1.54v.46H312V31.86a8.09,8.09,0,0,1,1.4-3.91,13.93,13.93,0,0,1,3.38-3.54,18.64,18.64,0,0,1,4.85-2.57,16.84,16.84,0,0,1,5.78-1H328c.44,0,.88,0,1.31,0a3.58,3.58,0,0,0,1.17-.27,2.24,2.24,0,0,0,.9-.73,3.31,3.31,0,0,0,.54-1.4l.09-.47a2,2,0,0,0-1.57-2.26Z" fill="#fff"/><path d="M360.44,58.11a4.82,4.82,0,0,0-1.56-.8,21.38,21.38,0,0,0-5.16-1c-1.77-.11-3.48-.16-5.12-.16a33,33,0,0,1-5.3-.44,20.21,20.21,0,0,1-4.87-1.4,12.18,12.18,0,0,1-2.3-1.34,5.32,5.32,0,0,0,.67.85,11.24,11.24,0,0,0,3.63,2.49,20.21,20.21,0,0,0,4.87,1.4,33,33,0,0,0,5.3.44c1.64,0,3.35.05,5.12.16a21.38,21.38,0,0,1,5.16,1,4.85,4.85,0,0,1,.61.25,4,4,0,0,0-.21-.47A3.38,3.38,0,0,0,360.44,58.11Z" fill="#fff"/><path d="M366,65.34a9.23,9.23,0,0,1-2.93,3.31,14.17,14.17,0,0,1-4.71,2.09,25.62,25.62,0,0,1-6.35.72,39,39,0,0,1-5.56-.39A47,47,0,0,1,341.19,70c-1.71-.44-3.38-.93-5-1.47-.75-.24-1.47-.5-2.19-.75l-.41,1.12c1.45.55,3,1.1,4.6,1.63s3.28,1,5,1.47a47,47,0,0,0,5.28,1.06,39,39,0,0,0,5.56.39,25.62,25.62,0,0,0,6.35-.72,14.17,14.17,0,0,0,4.71-2.09A9.23,9.23,0,0,0,368,67.34,9.43,9.43,0,0,0,369,63a8.83,8.83,0,0,0-1.67-5.4,8.27,8.27,0,0,0-1.9-1.83A8.82,8.82,0,0,1,367,61,9.43,9.43,0,0,1,366,65.34Z" fill="#fff"/><path d="M343.16,37.56a11.07,11.07,0,0,1-1.27-2.2,11.09,11.09,0,0,1,0-8.32,10.09,10.09,0,0,1,2.22-3.31,10.28,10.28,0,0,1,3.34-2.2,10.86,10.86,0,0,1,10.68,1.3,9,9,0,0,0-.95-1.1,10.23,10.23,0,0,0-3.33-2.2,11.29,11.29,0,0,0-8.4,0,10.28,10.28,0,0,0-3.34,2.2A10.09,10.09,0,0,0,339.89,25a11.09,11.09,0,0,0,0,8.32,10.3,10.3,0,0,0,2.22,3.31A10.06,10.06,0,0,0,343.16,37.56Z" fill="#fff"/><path d="M370.85,17.62l-.11.4a3.67,3.67,0,0,1-2.3,1.86,16.74,16.74,0,0,1-5.51.67,11.61,11.61,0,0,1,1.13,2,19.84,19.84,0,0,1,.83,2.34,18.56,18.56,0,0,1,.5,2.32,14.16,14.16,0,0,1,.17,2,15.25,15.25,0,0,1-1.25,6.14,15.78,15.78,0,0,1-3.43,5,16.34,16.34,0,0,1-5.05,3.38A15.57,15.57,0,0,1,349.65,45a15.81,15.81,0,0,1-7.15-1.66l-.29.17a26.1,26.1,0,0,0-2.94,1.86,2.68,2.68,0,0,0-1.23,2.2,1.65,1.65,0,0,0,.21.87A4.52,4.52,0,0,0,340,49.63h0s0-.07,0-.1a2.68,2.68,0,0,1,1.23-2.2,26.1,26.1,0,0,1,2.94-1.86l.29-.17A15.81,15.81,0,0,0,351.65,47a15.57,15.57,0,0,0,6.18-1.24,16.34,16.34,0,0,0,5.05-3.38,15.78,15.78,0,0,0,3.43-5,15.25,15.25,0,0,0,1.25-6.14,14.16,14.16,0,0,0-.17-2,18.56,18.56,0,0,0-.5-2.32,19.84,19.84,0,0,0-.83-2.34,11.61,11.61,0,0,0-1.13-2,16.74,16.74,0,0,0,5.51-.67,3.67,3.67,0,0,0,2.3-1.86h0a1.82,1.82,0,0,0-1.34-2.27Z" fill="#fff"/><path d="M425.59,20a8.4,8.4,0,0,0-4.78-1.24,15.24,15.24,0,0,0-4.74.68,12.23,12.23,0,0,0-3.63,1.82A8.77,8.77,0,0,0,410,23.9,7.07,7.07,0,0,0,409,27V57.55h-3.39a2,2,0,0,0,2,2H411V29a7.07,7.07,0,0,1,1-3.14,8.77,8.77,0,0,1,2.4-2.63,12.23,12.23,0,0,1,3.63-1.82,15.24,15.24,0,0,1,4.74-.68A8.4,8.4,0,0,1,427.59,22a4,4,0,0,1,.33.24A8.88,8.88,0,0,0,425.59,20Z" fill="#fff"/><path d="M398,19.55a7.51,7.51,0,0,0-3.53-.78,15.68,15.68,0,0,0-5.79.93A12.28,12.28,0,0,0,384.88,22a8.15,8.15,0,0,0-2.05,2.73,6.17,6.17,0,0,0-.61,2.36V57.55h-3.34a2,2,0,0,0,2,2h3.34V29a6.17,6.17,0,0,1,.61-2.36A8.15,8.15,0,0,1,386.88,24a12.28,12.28,0,0,1,3.75-2.25,15.68,15.68,0,0,1,5.79-.93,7.51,7.51,0,0,1,3.53.78,9.45,9.45,0,0,1,.86.53c-.12-.16-.23-.34-.36-.5A8.27,8.27,0,0,0,398,19.55Z" fill="#fff"/><path d="M437.18,27.14A17.22,17.22,0,0,0,434.84,21a11.41,11.41,0,0,0-2.64-2.86,10.65,10.65,0,0,1,.64.86,17.22,17.22,0,0,1,2.34,6.13,40.91,40.91,0,0,1,.67,7.54V57.55h-3.39a2,2,0,0,0,2,2h3.39V34.68A40.91,40.91,0,0,0,437.18,27.14Z" fill="#fff"/><path d="M450.71,47.8a6.46,6.46,0,0,1,1.11-3.87,7.72,7.72,0,0,1,3.05-2.49,16,16,0,0,1,4.63-1.32,41.1,41.1,0,0,1,5.87-.39c1,0,2.11,0,3.24.08l3.2.18a1.64,1.64,0,0,0,1.75-1.64h0c-.16,0-.6-.09-1.29-.17s-1.54-.15-2.51-.21l-3.15-.16c-1.13-.06-2.21-.08-3.24-.08a41.1,41.1,0,0,0-5.87.39,16,16,0,0,0-4.63,1.32,7.72,7.72,0,0,0-3.05,2.49,6.46,6.46,0,0,0-1.11,3.87,6.07,6.07,0,0,0,.65,2.77,7,7,0,0,0,1.81,2.26c.17.13.37.24.54.36-.12-.2-.24-.41-.35-.62A6.07,6.07,0,0,1,450.71,47.8Z" fill="#fff"/><path d="M473.52,52.67a22.19,22.19,0,0,1-3.89,2.63,26.49,26.49,0,0,1-4,1.72,22.76,22.76,0,0,1-3.93.93,25.9,25.9,0,0,1-3.59.27h-.59a17.68,17.68,0,0,1-5.38-1,14.64,14.64,0,0,1-4.35-2.37,12.44,12.44,0,0,0,1.83,1.87,14.51,14.51,0,0,0,4.52,2.5,17.68,17.68,0,0,0,5.38,1h.59A25.9,25.9,0,0,0,463.7,60a22.76,22.76,0,0,0,3.93-.93,26.49,26.49,0,0,0,4-1.72l.9-.5a2,2,0,0,0,1-1.81V52.67Z" fill="#fff"/><path d="M480.62,32.63a32.51,32.51,0,0,0-1-5.18,22.08,22.08,0,0,0-1.92-4.7,14,14,0,0,0-3.07-3.81c-.09-.08-.2-.15-.3-.23a13.71,13.71,0,0,1,1.37,2,22.08,22.08,0,0,1,1.92,4.7,32.51,32.51,0,0,1,1,5.18,49.24,49.24,0,0,1,.29,5.23V57.55h-3.33s0,.09,0,.15a2.58,2.58,0,0,0,2.51,1.85h2.79V37.86A49.24,49.24,0,0,0,480.62,32.63Z" fill="#fff"/><path d="M466.11,19.26a14.4,14.4,0,0,0-8.36,0A17.36,17.36,0,0,0,454,21.08l-1.37.85a3.69,3.69,0,0,1-1.92.44,4.94,4.94,0,0,1-1.93-.42c-.13.16.95,2.42,3.93,2.42A6.87,6.87,0,0,0,456,23.08a17.36,17.36,0,0,1,3.74-1.82,14.4,14.4,0,0,1,8.36,0,7.58,7.58,0,0,1,2.18,1.14,9.15,9.15,0,0,0-.72-.88A8.1,8.1,0,0,0,466.11,19.26Z" fill="#fff"/><path d="M509.81,18.68a19.94,19.94,0,0,0-5.68.79,16,16,0,0,0-4.59,2.15,11.49,11.49,0,0,0-3.13,3.17,7.63,7.63,0,0,0-1.3,3.79v29h-3.34a2,2,0,0,0,2,2h3.34v-29a7.63,7.63,0,0,1,1.3-3.79,11.49,11.49,0,0,1,3.13-3.17,16,16,0,0,1,4.59-2.15,19.94,19.94,0,0,1,5.68-.79,10.3,10.3,0,0,1,6.1,1.71l-.06-.08Q515.24,18.68,509.81,18.68Z" fill="#fff"/><path d="M526.72,26.64a17.86,17.86,0,0,0-3.09-6.06,14.25,14.25,0,0,0-2.08-2.1.39.39,0,0,0,.08.1,17.86,17.86,0,0,1,3.09,6.06,27,27,0,0,1,1.09,8v25h-3.35a2,2,0,0,0,2,2h3.35v-25A27,27,0,0,0,526.72,26.64Z" fill="#fff"/><polygon points="112.6 16.09 112.6 57.55 109.25 57.55 109.25 59.55 114.6 59.55 114.6 16.09 112.6 16.09" fill="#fff"/><path d="M113.59,0A4.32,4.32,0,0,1,114,1.83a4.27,4.27,0,0,1-4.27,4.27,4.14,4.14,0,0,1-1.83-.43A4.26,4.26,0,1,0,113.59,0Z" fill="#fff"/><path d="M147.21,20.72a17.24,17.24,0,0,1,11.24,4.15,17.27,17.27,0,0,0-30.48,11,17,17,0,0,0,6,13,16.93,16.93,0,0,1-4-11A17.17,17.17,0,0,1,147.21,20.72Z" fill="#fff"/><path d="M162.22,21.08a22.18,22.18,0,0,1,5.59,14.74,22.63,22.63,0,0,1-37.6,16.74,22.63,22.63,0,0,0,39.6-14.74A22.27,22.27,0,0,0,162.22,21.08Z" fill="#fff"/><path d="M284.91,56.13a26.14,26.14,0,0,1-4.41,1.53,19.33,19.33,0,0,1-4.61.56,22.08,22.08,0,0,1-6-.81,23.18,23.18,0,0,1-5.39-2.26,21.74,21.74,0,0,1-3.63-2.62c.34.39.69.76,1.05,1.12a22.16,22.16,0,0,0,4.58,3.5,23.18,23.18,0,0,0,5.39,2.26,22.08,22.08,0,0,0,6,.81,19.33,19.33,0,0,0,4.61-.56,26.14,26.14,0,0,0,4.41-1.53A26,26,0,0,0,294.35,53c-.37-.27-.69-.53-1-.78a6.4,6.4,0,0,0-.89-.64,3.23,3.23,0,0,0-.49-.25,25.1,25.1,0,0,1-3.06,2.51A25.82,25.82,0,0,1,284.91,56.13Z" fill="#fff"/><path d="M299.61,32.23a23.48,23.48,0,0,0-3-6.72A22.24,22.24,0,0,0,292.64,21a22,22,0,0,1,1.94,2.53,23.48,23.48,0,0,1,3,6.72,6,6,0,0,1,.21,1.45,5.15,5.15,0,0,1-.4,2,5.52,5.52,0,0,1-1.07,1.65,4.61,4.61,0,0,1-1.58,1.14,4.71,4.71,0,0,1-2,.42H258.68a16.22,16.22,0,0,0,1.59,6.37A16.72,16.72,0,0,0,264,48.34c.19.18.4.34.6.51a17.19,17.19,0,0,1-2.32-3.58,16.22,16.22,0,0,1-1.59-6.37H294.8a4.71,4.71,0,0,0,2-.42,4.61,4.61,0,0,0,1.58-1.14,5.52,5.52,0,0,0,1.07-1.65,5.15,5.15,0,0,0,.4-2A6,6,0,0,0,299.61,32.23Z" fill="#fff"/><path d="M286.25,22.08a16.44,16.44,0,0,0-4.87-2.51,17.94,17.94,0,0,0-5.45-.85,17.37,17.37,0,0,0-11.46,4.21,16.83,16.83,0,0,0-3.76,4.65,16.42,16.42,0,0,0-1.54,4h1.15a2.31,2.31,0,0,0,2.06-1.33c.1-.22.21-.43.33-.65a16.83,16.83,0,0,1,3.76-4.65,17.37,17.37,0,0,1,11.46-4.21,17.94,17.94,0,0,1,5.45.85,16.44,16.44,0,0,1,4.87,2.51c.24.18.47.38.7.57A16,16,0,0,0,286.25,22.08Z" fill="#fff"/></svg>