<svg xmlns="http://www.w3.org/2000/svg" xmlns:xlink="http://www.w3.org/1999/xlink" viewBox="0 0 512 512"><defs><style>.cls-1{fill:#fff;opacity:0.85;}.cls-2{fill:url(#Degradado_sin_nombre_2);}.cls-3{opacity:0.1;}.cls-4{fill:#231f20;}</style><linearGradient id="Degradado_sin_nombre_2" x1="417.73" y1="265.32" x2="417.83" y2="265.21" gradientUnits="userSpaceOnUse"><stop offset="0" stop-color="#5458a5"/><stop offset="1" stop-color="#49b7e9"/></linearGradient></defs><title>Sin título-1</title><g id="Capa_3" data-name="Capa 3"><path class="cls-1" d="M256,0C114.61,0,0,114.61,0,256S114.61,512,256,512,512,397.38,512,256,397.39,0,256,0Zm81.56,445.63H257.87a137.41,137.41,0,0,0,41.56-53h38.13a55.05,55.05,0,0,0,0-110.1H311.05v-53h26.51a55,55,0,1,0,0-110.1H282.51V337.56a108.07,108.07,0,0,1-216.14,0V311.07h53v26.49a55.05,55.05,0,0,0,110.1,0V119.39H174.44a55.11,55.11,0,0,0-55,55.05h-53A108.19,108.19,0,0,1,174.44,66.37H337.56A108,108,0,0,1,408.39,256a108,108,0,0,1-70.83,189.63Z"/><path class="cls-2" d="M417.33,264.74l-.11.09,1,.94C418,265.42,417.64,265.08,417.33,264.74Z"/><g class="cls-3"><path class="cls-4" d="M266.92,10.92A255,255,0,0,1,442.35,80.57,255.24,255.24,0,0,0,256,0C114.62,0,0,114.62,0,256A255.24,255.24,0,0,0,80.57,442.35,255,255,0,0,1,10.92,266.92C10.92,125.53,125.53,10.92,266.92,10.92Z"/><path class="cls-4" d="M75.2,346.39V319.9h44.19v-8.83h-53v26.49a107.83,107.83,0,0,0,36.24,80.67A107.61,107.61,0,0,1,75.2,346.39Z"/><path class="cls-4" d="M183.27,401.45a55.12,55.12,0,0,0,55.06-55.06V128.22h-8.84V337.56a55,55,0,0,1-89.29,43.07A55,55,0,0,0,183.27,401.45Z"/><path class="cls-4" d="M401.45,183.27a55,55,0,0,0-20.82-43.07,55,55,0,0,1-43.07,89.29H311.05v53h8.84V238.33h26.5A55.12,55.12,0,0,0,401.45,183.27Z"/><path class="cls-4" d="M183.27,75.2H346.39a107.61,107.61,0,0,1,71.84,27.41,107.83,107.83,0,0,0-80.67-36.24H174.44A108.19,108.19,0,0,0,66.37,174.44h9.2A108.21,108.21,0,0,1,183.27,75.2Z"/><path class="cls-4" d="M308.26,401.45h38.13a55,55,0,0,0,34.24-98.12,55,55,0,0,1-43.07,89.28H299.43a137.41,137.41,0,0,1-41.56,53H277A137.33,137.33,0,0,0,308.26,401.45Z"/></g></g></svg>