<svg id="adc78b2a-a44f-4548-9735-33e2ba4666eb" data-name="Capa 1" xmlns="http://www.w3.org/2000/svg" xmlns:xlink="http://www.w3.org/1999/xlink" viewBox="0 0 256 256"><defs><linearGradient id="a7b647ea-4f7d-4186-bf3f-8bcf80b2a555" x1="208.86" y1="303.35" x2="208.91" y2="303.4" gradientTransform="matrix(1, 0, 0, -1, 0, 436)" gradientUnits="userSpaceOnUse"><stop offset="0" stop-color="#5458a5"/><stop offset="1" stop-color="#49b7e9"/></linearGradient></defs><g id="b9ab1ea4-8406-4a4f-b4ce-08546d064a7d" data-name="Capa 3"><path d="M128,0A128,128,0,1,0,256,128,128,128,0,0,0,128,0Zm40.78,222.82H128.94a68.92,68.92,0,0,0,20.78-26.5h19.06a27.53,27.53,0,1,0,0-55H155.53v-26.5h13.25a27.53,27.53,0,1,0,0-55H141.26V168.78a54,54,0,0,1-108.07,0V155.54h26.5v13.24a27.53,27.53,0,0,0,55.05,0V59.7H87.22a27.55,27.55,0,0,0-27.5,27.52H33.22a54.08,54.08,0,0,1,54-54h81.56A54,54,0,0,1,204.2,128a54,54,0,0,1-35.42,94.82Z" fill="#fff" opacity="0.85" style="isolation:isolate"/><path d="M208.67,132.37l-.06,0,.5.47A4.19,4.19,0,0,0,208.67,132.37Z" fill="url(#a7b647ea-4f7d-4186-bf3f-8bcf80b2a555)"/><g opacity="0.1"><path d="M133.46,5.46a127.46,127.46,0,0,1,87.72,34.83A128,128,0,1,0,40.29,221.18,128,128,0,0,1,133.46,5.46Z" fill="#231f20"/><path d="M37.6,173.2V160H59.7v-4.41H33.2v13.24a53.91,53.91,0,0,0,18.12,40.34A53.82,53.82,0,0,1,37.6,173.2Z" fill="#231f20"/><path d="M91.64,200.73a27.57,27.57,0,0,0,27.53-27.53V64.11h-4.42V168.78A27.51,27.51,0,0,1,70.1,190.32,27.52,27.52,0,0,0,91.64,200.73Z" fill="#231f20"/><path d="M200.73,91.64A27.52,27.52,0,0,0,190.32,70.1a27.51,27.51,0,0,1-21.54,44.65H155.53v26.5H160V119.17H173.2A27.57,27.57,0,0,0,200.73,91.64Z" fill="#231f20"/><path d="M91.64,37.6H173.2a53.81,53.81,0,0,1,35.92,13.71,53.91,53.91,0,0,0-40.34-18.12H87.22a54.08,54.08,0,0,0-54,54h4.6A54.1,54.1,0,0,1,91.64,37.6Z" fill="#231f20"/><path d="M154.13,200.73H173.2a27.5,27.5,0,0,0,17.12-49.06,27.51,27.51,0,0,1-21.54,44.64H149.72a68.92,68.92,0,0,1-20.78,26.5h9.56A68.78,68.78,0,0,0,154.13,200.73Z" fill="#231f20"/></g></g></svg>